PathFileType	4	(X/Y/Z)	C:\Users\Basilio\Documents\Thesis Gigler\squatting_fais\c3dfiles\076\SJ_pre4\markers_experimental.trc
DataRate	CameraRate	NumFrames	NumMarkers	Units	OrigDataRate	OrigDataStartFrame	OrigNumFrames
200.000000	200.000000	4	61	mm	200.000000	1631	1864
Frame#	Time	FHD			LBHD			RBHD			C7			T10			CLAV			LSHO			LUUPA			LMUPA			LDUPA			LLEP			LMEP			LRAD			LUL			LRFIN			RSHO			RUPA1			RMUPA			RDUPA			RLEP			RMEP			RRAD			RUL			RUFIN			LASI			RASI			USACR			LSACR			RSACR			LTHI1			LTHI2			LTHI3			LTHI4			LLFC			LMFC			LTIB1			LTIB2			LTIB3			LTIB4			LLMAL			LMMAL			LHEE			LMT1			LMT2			LMT5			RTHI			RTHI2			RTHI3			RTHI4			RLFC			RMFC			RTIB1			RTIB2			RTIB3			RTIB4			RLMAL			RMMAL			RHEE			RMT1			RMT2			RMT5			
		X1	Y1	Z1	X2	Y2	Z2	X3	Y3	Z3	X4	Y4	Z4	X5	Y5	Z5	X6	Y6	Z6	X7	Y7	Z7	X8	Y8	Z8	X9	Y9	Z9	X10	Y10	Z10	X11	Y11	Z11	X12	Y12	Z12	X13	Y13	Z13	X14	Y14	Z14	X15	Y15	Z15	X16	Y16	Z16	X17	Y17	Z17	X18	Y18	Z18	X19	Y19	Z19	X20	Y20	Z20	X21	Y21	Z21	X22	Y22	Z22	X23	Y23	Z23	X24	Y24	Z24	X25	Y25	Z25	X26	Y26	Z26	X27	Y27	Z27	X28	Y28	Z28	X29	Y29	Z29	X30	Y30	Z30	X31	Y31	Z31	X32	Y32	Z32	X33	Y33	Z33	X34	Y34	Z34	X35	Y35	Z35	X36	Y36	Z36	X37	Y37	Z37	X38	Y38	Z38	X39	Y39	Z39	X40	Y40	Z40	X41	Y41	Z41	X42	Y42	Z42	X43	Y43	Z43	X44	Y44	Z44	X45	Y45	Z45	X46	Y46	Z46	X47	Y47	Z47	X48	Y48	Z48	X49	Y49	Z49	X50	Y50	Z50	X51	Y51	Z51	X52	Y52	Z52	X53	Y53	Z53	X54	Y54	Z54	X55	Y55	Z55	X56	Y56	Z56	X57	Y57	Z57	X58	Y58	Z58	X59	Y59	Z59	X60	Y60	Z60	X61	Y61	Z61	

1632	8.154999999999999	-297.4692077636719	1589.675170898438	-724.2308959960939	-310.5803833007813	1546.241943359375	-901.7799072265627	-421.2411499023439	1538.66357421875	-795.959655761719	-432.0860595703126	1418.1728515625	-861.4151000976565	-438.6131896972657	1093.0380859375	-870.055114746094	-304.8376159667969	1340.193237304688	-819.7705078125002	-329.3895263671876	1365.703002929688	-1007.833068847656	-306.0975952148438	1205.220336914063	-1130.561767578125	-292.9960327148438	1162.421752929688	-1106.930908203125	-302.7013549804688	1143.720092773438	-1163.769775390625	-304.7654724121094	1094.988037109375	-1192.450927734375	-389.2561340332032	1079.480346679688	-1175.229614257813	-294.9517517089844	925.2990722656252	-1006.189208984375	-338.0411071777344	906.395446777344	-1040.291870117188	-281.3877258300782	880.1489868164065	-1066.7626953125	-417.7491455078126	1352.711181640625	-679.7120971679689	-486.9162597656251	1203.819580078125	-563.5533447265626	-450.7171325683595	1170.6787109375	-552.4367065429689	-498.9338989257814	1143.031127929688	-528.6218261718751	-490.0604248046876	1074.683471679688	-504.0859985351564	-537.6248779296876	1051.860595703125	-575.5692138671876	-391.0753479003907	915.8807373046877	-656.8931884765626	-333.6367797851563	936.8829345703127	-664.2636718750001	-353.7403564453126	895.6038208007815	-603.2425537109376	-259.3994445800782	905.2491455078127	-936.877136230469	-289.5447387695313	918.3526000976565	-727.0293579101564	-436.5390014648439	989.2529296875002	-864.2932128906252	-441.0769348144532	961.3315429687502	-892.3572387695315	-449.3555297851564	961.6961059570315	-836.4331054687502	-355.7936401367188	769.795837402344	-1026.63818359375	-331.0321655273438	688.9261474609376	-1039.653198242188	-282.9136047363282	686.5335083007814	-1027.456176757813	-363.8279724121094	638.0234985351564	-1037.026733398438	-370.1029968261719	478.6096801757814	-1041.275756835938	-324.0960693359376	448.2917480468751	-935.836608886719	-332.1584777832032	324.0706481933594	-1012.357238769531	-366.9887695312501	286.3992614746094	-1084.271606445313	-332.2197265625001	281.7632446289063	-1054.070922851563	-342.0526123046876	199.7243957519532	-1037.26806640625	-407.2554931640626	86.01922607421876	-1108.607666015625	-368.9791870117188	85.91603851318361	-1030.9736328125	-454.9527587890626	44.02703475952149	-1064.052490234375	-245.2861022949219	53.75964355468751	-1078.9375	-245.8829345703126	56.63259124755861	-1118.18212890625	-271.5463867187501	45.76924514770509	-1165.748779296875	-393.3508911132814	673.4239501953126	-689.4074096679689	-361.4485168457032	615.6828002929689	-688.3078613281251	-326.8942871093751	616.3791503906251	-690.2643432617189	-391.3738708496095	541.4238891601564	-708.1734008789064	-396.8050231933595	478.1487426757814	-717.2105712890626	-355.1870117187501	476.7667541503907	-827.9944458007815	-355.5506896972657	345.5155639648438	-738.1711425781251	-425.8462524414064	262.8163452148438	-727.1870117187501	-378.7943115234376	261.0271606445313	-730.6386718750001	-358.8111572265626	217.1622009277344	-763.7230224609376	-418.635223388672	77.23917388916017	-750.4765625000001	-385.0347900390626	93.03387451171876	-827.5330200195315	-463.3865966796876	50.22667694091798	-806.8990478515627	-256.4595642089844	51.6449661254883	-783.9041137695315	-262.0433349609376	54.18527603149415	-738.7402343750001	-298.0727539062501	34.26453399658204	-690.6836547851564	
1633	8.16	-297.3719482421876	1589.714721679688	-724.7493896484376	-310.0808410644532	1546.533935546875	-902.2153930664065	-420.9836425781251	1538.759521484375	-796.750671386719	-431.5049743652345	1418.267944335938	-862.2845458984377	-438.2544250488282	1093.1787109375	-870.6561279296877	-304.4384460449219	1340.269165039063	-820.3906250000002	-328.5717773437501	1365.902587890625	-1008.406311035156	-304.2592468261719	1205.593017578125	-1131.35302734375	-292.1003112792969	1162.576904296875	-1107.537475585938	-301.6153869628907	1143.891723632813	-1164.373413085938	-303.3244323730469	1095.124389648438	-1192.859375	-388.2789916992189	1079.951904296875	-1176.159057617188	-294.6301879882813	925.480407714844	-1006.786071777344	-337.7300415039063	906.5925292968752	-1041.0205078125	-280.9334106445313	880.3779907226565	-1067.366333007813	-417.6283569335939	1352.76513671875	-680.6027832031251	-487.1839294433595	1203.697998046875	-564.8653564453126	-450.8628845214845	1170.579345703125	-553.5526123046876	-498.988494873047	1142.91455078125	-529.7686767578126	-490.1441345214845	1074.638305664063	-505.291717529297	-537.4293823242189	1051.719482421875	-576.9879760742189	-390.6818847656251	915.877868652344	-657.6889038085939	-333.0704040527344	936.9066162109377	-665.0382080078126	-353.2472839355469	895.6922607421877	-603.9866943359376	-258.9974975585938	905.4371337890627	-937.6999511718752	-288.8898315429688	918.3963623046877	-727.6456909179689	-436.1380920410157	989.4139404296877	-864.908386230469	-440.7249145507814	961.334411621094	-892.9779052734377	-448.8566894531251	961.7210693359377	-837.0305786132815	-355.7450256347657	769.9333496093752	-1027.289916992188	-331.1458129882813	688.9148559570314	-1040.220458984375	-283.2291870117188	686.5630493164064	-1028.32763671875	-364.2546081542969	638.1793823242189	-1037.488159179688	-370.4877014160157	478.540252685547	-1041.7705078125	-324.5903930664063	448.4440002441407	-936.3569946289065	-332.2527465820313	324.1577148437501	-1012.462341308594	-367.5904846191407	286.3858337402344	-1084.569580078125	-332.6752929687501	281.8217773437501	-1054.468017578125	-342.7402954101563	200.0702209472657	-1037.7001953125	-407.9320678710939	86.02554321289064	-1108.608154296875	-369.1658325195313	86.06815338134767	-1031.149169921875	-455.040252685547	43.98799514770509	-1064.129272460938	-245.3992919921876	53.72742080688478	-1079.072631835938	-245.9609375000001	56.64295959472658	-1118.368041992188	-271.5808410644532	45.69293212890626	-1165.856079101563	-392.7734375000001	673.4480590820314	-689.9900512695314	-360.9527282714844	615.7456665039064	-688.8565673828126	-326.1786804199219	616.4265136718751	-690.9776000976564	-390.8279724121095	541.5015869140626	-708.7824096679689	-396.3757934570314	478.2860412597657	-717.7767944335939	-354.8622131347657	476.6927185058595	-828.5566406250002	-355.3167114257813	345.5599365234376	-738.5296020507814	-425.6924743652345	262.8716125488282	-727.4403076171876	-378.5819396972657	261.0432128906251	-730.9711914062501	-358.5941467285157	217.1705169677735	-764.0050048828126	-418.5439453125001	77.35206604003908	-750.4978027343751	-385.1289062500001	93.01557922363283	-827.6656494140627	-463.3831787109376	50.2629737854004	-806.974548339844	-256.4644165039063	51.63954544067384	-783.9268798828127	-261.9977111816407	54.18703460693361	-738.7321166992189	-298.0328674316407	34.30169296264649	-690.6636352539064	
1634	8.165000000000001	-297.1823120117188	1589.93505859375	-725.2830200195314	-309.5512084960938	1546.664184570313	-902.809997558594	-420.6660461425782	1538.870971679688	-797.613952636719	-431.0215454101564	1418.31005859375	-863.0884399414065	-437.9771423339845	1093.27880859375	-871.2957153320315	-304.0103454589844	1340.375854492188	-820.9792480468752	-327.6817932128907	1366.112182617188	-1008.999633789063	-303.3303833007813	1205.830810546875	-1132.008544921875	-291.1570434570313	1162.688842773438	-1108.02099609375	-300.5221252441407	1144.13427734375	-1164.987670898438	-302.7298583984376	1095.429077148438	-1193.883544921875	-387.3555908203126	1080.368896484375	-1177.033813476563	-294.2169189453126	925.6622314453127	-1007.468383789063	-337.3188476562501	906.8414306640627	-1041.834838867188	-280.4971008300782	880.561462402344	-1067.94287109375	-417.4886169433595	1352.9169921875	-681.5571289062501	-487.2683715820314	1203.758911132813	-566.0473022460939	-450.8767089843751	1170.697265625	-554.7639770507814	-499.2567443847657	1142.869995117188	-531.0697631835939	-490.4024963378907	1074.488159179688	-506.573455810547	-537.2534790039064	1051.565673828125	-578.4588623046876	-390.0350646972657	915.9134521484377	-658.5324096679689	-332.3974914550782	936.9531860351565	-665.7705688476564	-352.8565368652344	895.755554199219	-604.7245483398439	-258.7164001464844	905.5993652343752	-938.4146118164065	-289.2847900390626	918.1770629882815	-729.0554809570314	-435.8596801757814	989.557067871094	-865.4639282226565	-440.2475891113282	961.4345703125002	-893.5776367187502	-448.4721984863282	961.6759033203127	-837.5433349609377	-355.5996704101563	769.9529418945315	-1027.758544921875	-331.4552307128907	688.9018554687501	-1040.812866210938	-283.5222473144532	686.5993041992189	-1029.2490234375	-364.4476928710938	638.3172607421876	-1038.061401367188	-370.6155700683594	478.479705810547	-1042.250732421875	-324.6862182617188	448.6402587890626	-937.1579589843752	-332.8290710449219	324.3720703125001	-1012.898132324219	-368.1092224121094	286.3833618164063	-1084.799560546875	-333.2579956054688	282.0578613281251	-1054.912963867188	-343.0538330078126	200.0909271240235	-1038.084350585938	-408.2491455078126	85.92736816406251	-1108.706298828125	-369.1785278320313	86.1481170654297	-1031.383056640625	-455.0234375000001	44.00368118286134	-1064.226806640625	-245.3672485351563	53.75580215454103	-1079.274169921875	-246.0037078857422	56.57468795776369	-1118.505615234375	-271.5741271972657	45.5987892150879	-1166.0419921875	-392.1284790039064	673.5573120117189	-690.5786743164064	-360.4516906738282	615.7132568359376	-689.4879150390626	-325.5745239257813	616.3883056640626	-691.6583862304689	-390.3549804687501	541.5058593750001	-709.3338012695314	-395.9417724609376	478.320770263672	-718.2491455078126	-354.2840881347657	476.6641235351564	-829.183288574219	-354.9898376464844	345.5458679199219	-738.8984375000001	-425.5411071777345	262.9188842773438	-727.6963500976564	-378.3905029296876	261.0598144531251	-731.2345581054689	-358.3663330078126	217.2083740234376	-764.2833862304689	-418.5511169433595	77.3578567504883	-750.5886840820314	-384.9328002929689	92.92292785644533	-827.7041015625002	-463.3472290039064	50.23662185668947	-806.9708251953127	-256.4613952636719	51.61606216430665	-783.9039306640627	-262.0057373046876	54.26234436035158	-738.7422485351564	-298.0710754394532	34.3239974975586	-690.7094726562501	
1635	8.17	-297.1444091796876	1590.016723632813	-725.9078979492189	-309.1632080078126	1546.769287109375	-903.4400634765627	-420.3767089843751	1538.749633789063	-798.2717285156252	-430.4207458496095	1418.436645507813	-863.9736938476565	-437.5109863281251	1093.369750976563	-871.9400634765627	-303.5365905761719	1340.46630859375	-821.5814208984377	-326.7258911132813	1366.28564453125	-1009.599731445313	-302.3036499023438	1206.021484375	-1132.730224609375	-290.4147949218751	1162.941772460938	-1108.745239257813	-299.4360351562501	1144.273803710938	-1165.571411132813	-301.7102966308594	1095.681884765625	-1194.566528320313	-386.3842773437501	1080.746215820313	-1178.025146484375	-293.7334289550782	925.8862915039065	-1008.323120117188	-336.6699218750001	907.2319335937502	-1042.582763671875	-280.1354064941407	880.8472900390627	-1068.7705078125	-417.3834228515626	1353.078857421875	-682.3265991210939	-487.4486083984376	1203.738891601563	-567.2743530273439	-451.0292358398439	1170.6796875	-555.8052368164064	-499.4185180664064	1142.864135742188	-532.3392944335939	-490.4755859375001	1074.539916992188	-507.9068908691407	-537.1986083984376	1051.6015625	-579.8335571289064	-389.3854064941407	915.9614868164065	-659.3831787109376	-331.8006591796876	937.058776855469	-666.5106811523439	-352.3904418945313	896.0026855468752	-605.4756469726564	-258.3458557128907	905.763366699219	-939.2241821289065	-288.7271728515626	918.1701660156252	-730.0022583007814	-435.3728027343751	989.666931152344	-866.145690917969	-439.9756164550782	961.5654907226565	-894.1983642578127	-447.9583435058595	961.7534179687502	-838.2429809570315	-355.5036926269532	770.0813598632815	-1028.346557617188	-331.6326904296876	688.9630126953126	-1041.54931640625	-283.7876281738282	686.5632324218751	-1030.448852539063	-365.7351684570313	638.7422485351564	-1038.858764648438	-371.0743408203126	478.3783569335939	-1042.645141601563	-324.4815979003907	448.7991943359376	-937.982604980469	-333.3161926269532	324.5008850097657	-1013.262390136719	-368.2980041503907	286.6495971679688	-1085.2861328125	-333.4152221679688	282.1742248535157	-1055.010620117188	-343.2507324218751	200.2447204589844	-1038.428955078125	-407.9803771972657	85.80696868896486	-1108.95556640625	-369.0283508300782	86.15306091308595	-1031.6787109375	-455.0213012695314	44.04099655151368	-1064.37060546875	-245.3152465820313	53.82757949829103	-1079.334838867188	-245.8906707763672	56.48522186279298	-1118.633666992188	-271.5199584960938	45.50379180908204	-1166.23046875	-391.5505676269532	673.7365112304689	-691.2098999023439	-359.7942504882813	615.8048706054689	-690.1710815429689	-324.8428649902344	616.5424804687501	-692.2247924804689	-389.8153076171876	541.5658569335939	-709.9614868164064	-395.5735778808595	478.274383544922	-718.7153320312501	-353.8608703613282	476.6203613281251	-829.6130981445315	-354.6730651855469	345.6031188964844	-739.3048095703126	-425.3984985351564	262.9508056640626	-727.9528198242189	-378.1945190429688	261.1277160644532	-731.4961547851564	-358.1772460937501	217.1856536865235	-764.5375976562501	-418.5078735351564	77.38549041748048	-750.6492919921876	-384.9731750488282	92.90987396240236	-827.771179199219	-463.2951049804689	50.23474884033205	-806.9902954101565	-256.4230957031251	51.62842941284181	-783.9700317382815	-261.9511108398438	54.26085662841798	-738.7249755859376	-298.0610656738282	34.29649353027344	-690.7243041992189	
